<svg width="80" height="80" viewBox="0 0 80 80" fill="none" xmlns="http://www.w3.org/2000/svg">
<path opacity="0.2" fill-rule="evenodd" clip-rule="evenodd" d="M40 68C43.677 68 47.318 67.2758 50.7151 65.8686C54.1123 64.4615 57.1989 62.399 59.799 59.799C62.399 57.1989 64.4615 54.1123 65.8686 50.7151C67.2758 47.318 68 43.677 68 40C68 36.323 67.2758 32.682 65.8686 29.2849C64.4615 25.8877 62.399 22.8011 59.799 20.201C57.1989 17.601 54.1123 15.5385 50.7151 14.1314C47.318 12.7242 43.677 12 40 12C32.5739 12 25.452 14.95 20.201 20.201C14.95 25.452 12 32.5739 12 40C12 47.4261 14.95 54.548 20.201 59.799C25.452 65.05 32.5739 68 40 68V68ZM40 80C62.092 80 80 62.092 80 40C80 17.908 62.092 0 40 0C17.908 0 0 17.908 0 40C0 62.092 17.908 80 40 80Z" fill="#C8F9E8"/>
<path d="M0 40C0 17.908 17.908 0 40 0V6V12C32.5739 12 25.452 14.95 20.201 20.201C14.95 25.452 12 32.5739 12 40H0Z" fill="#04707A"/>
</svg>
